<svg xmlns="http://www.w3.org/2000/svg" viewBox="0 0 85.04 85.04"><defs><style>.cls-1{fill:#231f20;}.cls-2{font-size:27.41px;font-family:Trebuchet-BoldItalic, Trebuchet MS;font-weight:700;font-style:italic;}.cls-2,.cls-3{fill:#fff;}</style></defs><g id="inverted"><rect id="Border" class="cls-1" width="85.04" height="85.04" rx="4.3"/><g id="BW-Logo"><text class="cls-2" transform="translate(7.64 63.31)">MtnM</text><path class="cls-1" d="M2,65.47,25.26,37.39c1-1.15,1.94-2.25,2.92-3.34a.49.49,0,0,1,.41,0,6.52,6.52,0,0,1,1.74,1.16c2.08,2.69,4.07,5.42,6.06,8.15a1.12,1.12,0,0,0,1.08.5c4.26,0,8.52,0,12.78,0H81.83a5.62,5.62,0,0,0-1-.26c-1.2-.12-2.4-.23-3.6-.32-2.11-.16-4.22-.26-6.32-.47A3.45,3.45,0,0,1,68.63,42c-1-1.07-2.32-2-3.44-3a8.63,8.63,0,0,1-1.84-2c-1.16-2.12-2.17-4.28-3.21-6.44-.17-.35-.38-.51-.92-.47-.85.06-1.72.06-2.57.1a.81.81,0,0,1-.8-.31c-2.24-2.84-4.51-5.67-6.78-8.5l-1.55-1.93c-.86.8-1.66,1.5-2.4,2.24a1.43,1.43,0,0,1-1.18.41c-1.15,0-2.3,0-3.44,0a1.06,1.06,0,0,0-.68.31c-.84,1.2-1.64,2.42-2.46,3.62a14.43,14.43,0,0,1-1.75,2.4c-1.69,1.61-3.56,3.13-5.31,4.72a.66.66,0,0,1-.93.06l-1.61-.9a1.33,1.33,0,0,0-.2.13q-4.3,4.89-8.61,9.79a.88.88,0,0,1-.49.31c-1.71.2-3.42.37-5.14.54-1.19.11-2.4.21-3.6.3-.71.06-1.43.07-2.14.13s-1.34.16-1.95.23h28.5c0-.09,0-.15,0-.19-1.21-1.44-2.41-2.89-3.65-4.31a2.1,2.1,0,0,0-.9-.52C28.15,38.27,26.73,37.85,25.26,37.39Z"/><path class="cls-3" d="M26.3,37.39c1.48.46,2.89.88,4.29,1.34a2.12,2.12,0,0,1,.89.52c1.24,1.42,2.44,2.87,3.65,4.31a.56.56,0,0,1,0,.19H6.68c.6-.07,1.27-.17,1.94-.23s1.43-.07,2.15-.13l3.6-.3c1.71-.17,3.42-.34,5.13-.54a1,1,0,0,0,.5-.31l8.6-9.79a1.33,1.33,0,0,1,.2-.13l1.61.9a.66.66,0,0,0,.93-.06c1.75-1.59,3.62-3.11,5.32-4.72A14.37,14.37,0,0,0,38.4,26c.83-1.2,1.62-2.42,2.46-3.62a1.06,1.06,0,0,1,.68-.31c1.15,0,2.3,0,3.44,0a1.43,1.43,0,0,0,1.18-.41c.74-.74,1.54-1.44,2.41-2.24l1.55,1.93c2.26,2.83,4.53,5.66,6.77,8.5a.81.81,0,0,0,.8.31c.86,0,1.72,0,2.58-.1a.77.77,0,0,1,.91.47c1,2.16,2,4.32,3.22,6.44a8.36,8.36,0,0,0,1.83,2c1.13,1,2.42,1.95,3.44,3a3.45,3.45,0,0,0,2.32.78c2.1.21,4.21.31,6.32.47,1.2.09,2.4.2,3.6.32a5.62,5.62,0,0,1,1,.26H51.29c-4.26,0-8.52,0-12.78,0a1.13,1.13,0,0,1-1.08-.5c-2-2.73-4-5.46-6.06-8.15A6.62,6.62,0,0,0,29.64,34a.51.51,0,0,0-.42,0C28.25,35.14,27.3,36.24,26.3,37.39Zm32.91,2.69c-.17-.23-.24-.35-.33-.46-1.37-1.61-2.79-3.2-4.1-4.83-1.86-2.3-3.64-4.65-6.44-6.42a5.12,5.12,0,0,1-2.21-2.77A10,10,0,0,0,45.42,24a1,1,0,0,0-.66-.45c-1.08,0-2.18,0-3.31,0,0,.08,0,.16,0,.24.44,1.58.88,3.15,1.35,4.72a1.24,1.24,0,0,0,.49.61c.85.59,1.76,1.13,2.61,1.73A20.5,20.5,0,0,1,48.76,33c1.43,1.48,2.67,3,4,4.56a2.29,2.29,0,0,0,.86.56c1,.4,2,.78,3,1.15C57.44,39.5,58.25,39.76,59.21,40.08Zm-4.37-8.34a.77.77,0,0,0,0-.15q-1.27-3-2.56-6a1.14,1.14,0,0,0-.26-.37l-3.67-3.29-1.58,1C50.33,25.49,52.25,28.77,54.84,31.74Zm8,5.41c0-.12.06-.18,0-.22q-1.24-2.3-2.52-4.59a.5.5,0,0,0-.31-.22c-.56,0-1.12,0-1.82,0Z"/><path class="cls-1" d="M58.17,40.08c-1-.32-1.77-.58-2.56-.86-1-.37-2-.75-3-1.15a2.42,2.42,0,0,1-.87-.56c-1.34-1.51-2.58-3.08-4-4.56a20,20,0,0,0-2.82-2.13c-.84-.6-1.75-1.14-2.6-1.73a1.24,1.24,0,0,1-.49-.61c-.47-1.57-.91-3.14-1.35-4.72a1,1,0,0,1-.05-.24c1.13,0,2.22,0,3.31,0a1,1,0,0,1,.66.45,10,10,0,0,1,.71,1.61,5.08,5.08,0,0,0,2.21,2.77c2.79,1.77,4.57,4.12,6.43,6.42,1.32,1.63,2.74,3.22,4.11,4.83C57.93,39.73,58,39.85,58.17,40.08Z"/><path class="cls-1" d="M53.8,31.74c-2.59-3-4.52-6.25-8.09-8.8l1.58-1L51,25.22a1.14,1.14,0,0,1,.26.37l2.56,6A.77.77,0,0,1,53.8,31.74Z"/><path class="cls-1" d="M61.82,37.15l-4.62-5c.7,0,1.26,0,1.82,0a.5.5,0,0,1,.31.22q1.28,2.29,2.52,4.59S61.84,37,61.82,37.15Z"/></g></g></svg>