<svg xmlns="http://www.w3.org/2000/svg" viewBox="0 0 85.04 85.04"><defs><style>.cls-1{fill:none;opacity:0.5;}.cls-2{font-size:27.41px;font-family:Trebuchet-BoldItalic, Trebuchet MS;font-weight:700;font-style:italic;}.cls-2,.cls-4{fill:#3a95d1;}.cls-3{fill:#fff;}</style></defs><g id="Layer_6" data-name="Layer 6"><rect id="Border" class="cls-1" x="0.04" y="-0.46" width="85.04" height="85.04" rx="4.3"/><g id="BW-Logo"><text class="cls-2" transform="translate(7.75 61.53)">MtnM</text><path class="cls-3" d="M2.13,63.69,25.37,35.61c1-1.15,1.95-2.25,2.92-3.34a.6.6,0,0,1,.42-.05,6.62,6.62,0,0,1,1.73,1.16c2.08,2.69,4.08,5.42,6.07,8.15a1.11,1.11,0,0,0,1.07.5c4.26,0,8.52,0,12.78,0H81.94a5.62,5.62,0,0,0-1-.25c-1.19-.13-2.4-.23-3.6-.32-2.1-.16-4.22-.27-6.32-.48a3.31,3.31,0,0,1-2.31-.78c-1-1.07-2.32-2-3.45-3a8.75,8.75,0,0,1-1.83-1.94c-1.17-2.12-2.17-4.29-3.22-6.45a.77.77,0,0,0-.91-.47c-.86.06-1.72.06-2.58.1a.81.81,0,0,1-.8-.31c-2.24-2.84-4.51-5.67-6.77-8.5l-1.55-1.92c-.87.79-1.67,1.49-2.41,2.23a1.46,1.46,0,0,1-1.17.42q-1.73,0-3.45,0a1,1,0,0,0-.68.32c-.84,1.19-1.63,2.41-2.46,3.61a14.37,14.37,0,0,1-1.74,2.4c-1.7,1.62-3.57,3.14-5.32,4.72a.66.66,0,0,1-.93.06l-1.61-.9-.19.13-8.61,9.79a.93.93,0,0,1-.5.32c-1.71.19-3.42.36-5.13.53l-3.6.31c-.72.05-1.44.06-2.15.12s-1.34.16-1.94.24h28.5c0-.1,0-.16,0-.2-1.21-1.44-2.41-2.89-3.65-4.31a2.12,2.12,0,0,0-.89-.52C28.26,36.49,26.85,36.07,25.37,35.61Z"/><path class="cls-4" d="M26.41,35.61c1.48.46,2.9.88,4.29,1.34a2,2,0,0,1,.89.52c1.25,1.42,2.45,2.87,3.66,4.31,0,0,0,.1,0,.2H6.79c.6-.08,1.27-.18,1.94-.24s1.44-.07,2.15-.12l3.6-.31c1.71-.17,3.43-.34,5.13-.53a.93.93,0,0,0,.5-.32q4.32-4.89,8.61-9.79l.19-.13,1.61.9a.66.66,0,0,0,.93-.06c1.76-1.58,3.62-3.1,5.32-4.72a13.82,13.82,0,0,0,1.74-2.4c.83-1.2,1.62-2.42,2.47-3.61a1,1,0,0,1,.67-.32q1.73,0,3.45,0a1.46,1.46,0,0,0,1.17-.42c.74-.74,1.55-1.44,2.41-2.23l1.55,1.92c2.26,2.83,4.53,5.66,6.77,8.5a.82.82,0,0,0,.8.31c.86,0,1.73,0,2.58-.1.54,0,.75.12.92.47,1,2.16,2.05,4.33,3.21,6.45a8.58,8.58,0,0,0,1.84,1.94c1.12,1,2.42,1.95,3.44,3a3.32,3.32,0,0,0,2.32.78c2.09.21,4.21.32,6.31.48,1.21.09,2.41.19,3.61.32A6.15,6.15,0,0,1,83,42H51.41c-4.26,0-8.52,0-12.78,0a1.11,1.11,0,0,1-1.08-.5c-2-2.73-4-5.46-6.07-8.15a6.45,6.45,0,0,0-1.73-1.16.61.61,0,0,0-.42.05C28.36,33.36,27.41,34.46,26.41,35.61ZM59.32,38.3a4.89,4.89,0,0,0-.33-.45c-1.37-1.62-2.78-3.21-4.1-4.84-1.86-2.3-3.64-4.65-6.44-6.42a5.09,5.09,0,0,1-2.21-2.77,9.51,9.51,0,0,0-.71-1.6,1,1,0,0,0-.65-.45c-1.09-.05-2.18,0-3.31,0a2.4,2.4,0,0,0,0,.24c.45,1.57.88,3.15,1.36,4.71a1.24,1.24,0,0,0,.48.62c.85.59,1.77,1.13,2.61,1.72a20,20,0,0,1,2.81,2.14c1.43,1.47,2.67,3,4,4.56a2.4,2.4,0,0,0,.86.55c1,.41,2,.79,3,1.15C57.55,37.73,58.36,38,59.32,38.3ZM55,30a.43.43,0,0,0,0-.16c-.86-2-1.71-4-2.57-6a1.32,1.32,0,0,0-.25-.38l-3.68-3.29-1.58,1C50.44,23.71,52.36,27,55,30Zm8,5.41c0-.13.06-.19,0-.23-.84-1.53-1.67-3.06-2.52-4.59a.45.45,0,0,0-.32-.21c-.56,0-1.12,0-1.82,0Z"/><path class="cls-3" d="M58.28,38.3c-1-.32-1.77-.57-2.56-.86-1-.36-2-.74-3-1.15a2.4,2.4,0,0,1-.86-.55c-1.35-1.52-2.59-3.09-4-4.56A20.55,20.55,0,0,0,45,29c-.85-.59-1.76-1.13-2.61-1.72a1.26,1.26,0,0,1-.49-.62c-.47-1.56-.91-3.14-1.35-4.71,0-.08,0-.17,0-.24,1.13,0,2.23,0,3.32,0a1,1,0,0,1,.65.45,9.51,9.51,0,0,1,.71,1.6,5.09,5.09,0,0,0,2.21,2.77c2.8,1.77,4.58,4.12,6.44,6.42,1.32,1.63,2.73,3.22,4.1,4.84C58,38,58.11,38.07,58.28,38.3Z"/><path class="cls-3" d="M53.91,30c-2.59-3-4.51-6.26-8.09-8.81l1.58-1,3.67,3.29a1.17,1.17,0,0,1,.26.38q1.29,3,2.56,6A.44.44,0,0,1,53.91,30Z"/><path class="cls-3" d="M61.93,35.38l-4.62-5c.7,0,1.26,0,1.82,0a.45.45,0,0,1,.31.21q1.28,2.3,2.52,4.59S62,35.25,61.93,35.38Z"/></g></g></svg>