<svg xmlns="http://www.w3.org/2000/svg" viewBox="0 0 85.04 85.04"><defs><style>.cls-1{fill:#3a86c2;}.cls-2{font-size:27.45px;font-family:Trebuchet-BoldItalic, Trebuchet MS;font-weight:700;font-style:italic;}.cls-2,.cls-4{fill:#fff;}.cls-3{fill:#3b95d1;}.cls-5{fill:#3b94d1;}</style></defs><g id="Layer_3" data-name="Layer 3"><rect id="Border" class="cls-1" width="85.19" height="85.19" rx="4.3"/><g id="ColorW-Logo"><text class="cls-2" transform="translate(7.66 62.03)">MtnM</text><path class="cls-3" d="M2,64.19,25.3,36.06l2.93-3.35a.55.55,0,0,1,.42,0,6.45,6.45,0,0,1,1.73,1.16c2.09,2.69,4.09,5.43,6.08,8.16a1.11,1.11,0,0,0,1.08.5c4.27,0,8.53,0,12.8,0H82a6,6,0,0,0-1-.25c-1.2-.13-2.4-.23-3.61-.32-2.11-.16-4.22-.26-6.32-.48a3.36,3.36,0,0,1-2.33-.78c-1-1.07-2.32-2-3.45-3a8.79,8.79,0,0,1-1.83-2c-1.17-2.13-2.18-4.3-3.22-6.46-.17-.35-.38-.51-.92-.47-.86.06-1.72.06-2.58.1a.81.81,0,0,1-.8-.31Q52.58,24.28,49.16,20L47.61,18.1c-.87.79-1.67,1.5-2.41,2.23a1.41,1.41,0,0,1-1.18.42c-1.15,0-2.3,0-3.45,0a1,1,0,0,0-.68.31c-.84,1.2-1.64,2.42-2.46,3.63a14.43,14.43,0,0,1-1.75,2.4c-1.7,1.62-3.57,3.14-5.33,4.73a.65.65,0,0,1-.93.05L27.81,31a1.33,1.33,0,0,0-.2.13Q23.31,36,19,40.92a.87.87,0,0,1-.5.32c-1.71.19-3.42.37-5.14.53-1.2.12-2.4.22-3.61.31-.71.05-1.43.06-2.15.12s-1.34.16-1.94.24H34.2a.56.56,0,0,0-.05-.2c-1.21-1.44-2.41-2.89-3.66-4.32a2.1,2.1,0,0,0-.89-.52C28.2,36.94,26.78,36.52,25.3,36.06Z"/><path class="cls-4" d="M31.43,33.83a6.68,6.68,0,0,0-1.74-1.16.55.55,0,0,0-.42,0c-1,1.1-1.92,2.2-2.92,3.35,1.48.46,2.9.88,4.29,1.34a2.21,2.21,0,0,1,.9.52c1.24,1.43,2.44,2.88,3.66,4.32,0,0,0,.1,0,.2H6.69c.61-.08,1.27-.18,2-.24s1.43-.07,2.15-.12c1.2-.09,2.4-.19,3.6-.31,1.72-.16,3.44-.34,5.15-.53a.85.85,0,0,0,.49-.32q4.32-4.89,8.63-9.8s.07-.05.19-.13l1.61.89c.35.2.58.27.94-.05,1.75-1.59,3.62-3.11,5.32-4.73a14.43,14.43,0,0,0,1.75-2.4c.83-1.21,1.62-2.43,2.47-3.63a1,1,0,0,1,.67-.31c1.15,0,2.31,0,3.46,0a1.4,1.4,0,0,0,1.17-.42c.74-.73,1.55-1.44,2.41-2.23.55.68,1.06,1.3,1.56,1.93,2.26,2.83,4.54,5.67,6.78,8.51a.82.82,0,0,0,.8.31c.86,0,1.73,0,2.59-.1a.77.77,0,0,1,.91.47c1.05,2.16,2.05,4.33,3.22,6.46a8.61,8.61,0,0,0,1.84,2c1.13,1,2.42,1.95,3.45,3a3.35,3.35,0,0,0,2.32.78c2.1.22,4.22.32,6.33.48,1.2.09,2.41.19,3.61.32a5.87,5.87,0,0,1,1,.25H51.38c-4.26,0-8.53,0-12.8,0A1.12,1.12,0,0,1,37.5,42m21.81-3.23A4.89,4.89,0,0,0,59,38.3c-1.37-1.61-2.79-3.21-4.11-4.84C53,31.15,51.23,28.8,48.42,27a5.15,5.15,0,0,1-2.21-2.78,10,10,0,0,0-.71-1.61,1,1,0,0,0-.65-.44c-1.09-.05-2.19,0-3.32,0,0,.08,0,.16,0,.25.45,1.57.89,3.15,1.36,4.72a1.31,1.31,0,0,0,.49.62c.85.59,1.76,1.13,2.61,1.72a20.66,20.66,0,0,1,2.82,2.14c1.43,1.47,2.67,3.05,4,4.57a2.47,2.47,0,0,0,.87.56c1,.4,2,.78,3,1.15C57.54,38.18,58.35,38.44,59.31,38.76Zm-4.37-8.35a.68.68,0,0,0,0-.15q-1.28-3-2.57-6a1.15,1.15,0,0,0-.25-.37l-3.68-3.3-1.59,1C50.42,24.14,52.34,27.43,54.94,30.41Zm8,5.42c0-.13.06-.18,0-.23q-1.24-2.3-2.52-4.59a.47.47,0,0,0-.31-.22c-.56,0-1.13,0-1.82,0Z"/><path class="cls-5" d="M61.93,35.83l-4.63-5c.7,0,1.26,0,1.82,0a.49.49,0,0,1,.32.22c.85,1.53,1.68,3.06,2.52,4.59C62,35.65,62,35.7,61.93,35.83Z"/></g></g></svg>